<svg width="246" height="246" viewBox="0 0 246 246" fill="none" xmlns="http://www.w3.org/2000/svg">
<path d="M0 61.5V10.25C0 7.53153 1.07991 4.92441 3.00216 3.00216C4.92441 1.07991 7.53153 0 10.25 0H61.5C64.2185 0 66.8256 1.07991 68.7478 3.00216C70.6701 4.92441 71.75 7.53153 71.75 10.25C71.75 12.9685 70.6701 15.5756 68.7478 17.4978C66.8256 19.4201 64.2185 20.5 61.5 20.5H20.5V61.5C20.5 64.2185 19.4201 66.8256 17.4978 68.7478C15.5756 70.6701 12.9685 71.75 10.25 71.75C7.53153 71.75 4.92441 70.6701 3.00216 68.7478C1.07991 66.8256 0 64.2185 0 61.5ZM235.75 0H184.5C181.782 0 179.174 1.07991 177.252 3.00216C175.33 4.92441 174.25 7.53153 174.25 10.25C174.25 12.9685 175.33 15.5756 177.252 17.4978C179.174 19.4201 181.782 20.5 184.5 20.5H225.5V61.5C225.5 64.2185 226.58 66.8256 228.502 68.7478C230.424 70.6701 233.032 71.75 235.75 71.75C238.468 71.75 241.076 70.6701 242.998 68.7478C244.92 66.8256 246 64.2185 246 61.5V10.25C246 7.53153 244.92 4.92441 242.998 3.00216C241.076 1.07991 238.468 0 235.75 0ZM61.5 225.5H20.5V184.5C20.5 181.782 19.4201 179.174 17.4978 177.252C15.5756 175.33 12.9685 174.25 10.25 174.25C7.53153 174.25 4.92441 175.33 3.00216 177.252C1.07991 179.174 0 181.782 0 184.5V235.75C0 238.468 1.07991 241.076 3.00216 242.998C4.92441 244.92 7.53153 246 10.25 246H61.5C64.2185 246 66.8256 244.92 68.7478 242.998C70.6701 241.076 71.75 238.468 71.75 235.75C71.75 233.032 70.6701 230.424 68.7478 228.502C66.8256 226.58 64.2185 225.5 61.5 225.5ZM194.75 174.25V71.75C194.75 66.3131 192.59 61.0988 188.746 57.2543C184.901 53.4098 179.687 51.25 174.25 51.25H71.75C66.3131 51.25 61.0988 53.4098 57.2543 57.2543C53.4098 61.0988 51.25 66.3131 51.25 71.75V174.25C51.25 179.687 53.4098 184.901 57.2543 188.746C61.0988 192.59 66.3131 194.75 71.75 194.75H174.25C179.687 194.75 184.901 192.59 188.746 188.746C192.59 184.901 194.75 179.687 194.75 174.25ZM235.75 174.25C233.032 174.25 230.424 175.33 228.502 177.252C226.58 179.174 225.5 181.782 225.5 184.5V225.5H184.5C181.782 225.5 179.174 226.58 177.252 228.502C175.33 230.424 174.25 233.032 174.25 235.75C174.25 238.468 175.33 241.076 177.252 242.998C179.174 244.92 181.782 246 184.5 246H235.75C238.468 246 241.076 244.92 242.998 242.998C244.92 241.076 246 238.468 246 235.75V184.5C246 181.782 244.92 179.174 242.998 177.252C241.076 175.33 238.468 174.25 235.75 174.25Z" fill="black"/>
</svg>
